<?xml version="1.0" encoding="UTF-8"?>
<svg version="1.1" xmlns="http://www.w3.org/2000/svg" width="2000" height="2000">
<path d="M0 0 C660 0 1320 0 2000 0 C2000 660 2000 1320 2000 2000 C1340 2000 680 2000 0 2000 C0 1340 0 680 0 0 Z " fill="#FEFEFE" transform="translate(0,0)"/>
<path d="M0 0 C12.17683331 9.27190249 19.73867796 20.37972268 22.5625 35.625 C24.06700707 50.17426725 20.24922016 64.17084532 11.81640625 76.09375 C3.31650194 86.41380014 -9.11994066 93.89544684 -22.4375 95.625 C-38.48553108 96.66731333 -52.60522906 93.7078048 -65.26953125 83.296875 C-76.29534891 72.78350164 -82.37646752 60.49429011 -82.91040039 45.18676758 C-83.06902201 29.82619254 -78.80872465 17.31128266 -68.1875 5.875 C-49.44474224 -11.49328886 -21.33081828 -14.14603667 0 0 Z " fill="#F5931E" transform="translate(1030.4375,956.375)"/>
<path d="M0 0 C2.97 0.495 2.97 0.495 6 1 C5.34 4.3 4.68 7.6 4 11 C5.65 11 7.3 11 9 11 C9.33 8.03 9.66 5.06 10 2 C11.98 2.33 13.96 2.66 16 3 C15.67 6.3 15.34 9.6 15 13 C15.886875 13.37125 16.77375 13.7425 17.6875 14.125 C21.73174238 16.4141938 23.4250426 18.1375639 26 22 C26.59626815 25.65214239 26.27796555 27.41759598 24.6875 30.75 C23 33 23 33 20 35 C20.845625 35.825 21.69125 36.65 22.5625 37.5 C24.70818625 40.08457662 25.37281338 41.63827167 25.0625 45 C24.14096888 49.53810609 22.21725283 53.50499581 18.28515625 56.15625 C15.19692551 57.29651981 12.53125608 57.19062512 9.25 57.125 C8.07953125 57.10695313 6.9090625 57.08890625 5.703125 57.0703125 C4.81109375 57.04710937 3.9190625 57.02390625 3 57 C2.34 59.97 1.68 62.94 1 66 C-0.98 65.67 -2.96 65.34 -5 65 C-4.34 61.7 -3.68 58.4 -3 55 C-4.32 55 -5.64 55 -7 55 C-7.66 57.64 -8.32 60.28 -9 63 C-10.98 62.67 -12.96 62.34 -15 62 C-14.34 58.7 -13.68 55.4 -13 52 C-16.63 51.34 -20.26 50.68 -24 50 C-23 45 -23 45 -22 43 C-20.02 43 -18.04 43 -16 43 C-13.15519377 33.73809271 -10.391453 24.61556329 -9 15 C-10.98 14.34 -12.96 13.68 -15 13 C-14.67 11.02 -14.34 9.04 -14 7 C-10.04 7.33 -6.08 7.66 -2 8 C-1.34 5.36 -0.68 2.72 0 0 Z " fill="#FBFAF1" transform="translate(997,966)"/>
<path d="M0 0 C5.77730914 0.29376148 9.50716994 1.05507605 14 5 C15.125 7.5 15.125 7.5 15 10 C13.625 12.3125 13.625 12.3125 11 14 C5.81775977 14.78167869 1.78194088 14.10843954 -3 12 C-2.69230293 10.18667846 -2.37870936 8.37435655 -2.0625 6.5625 C-1.80146484 5.04849609 -1.80146484 5.04849609 -1.53515625 3.50390625 C-1 1 -1 1 0 0 Z " fill="#F29728" transform="translate(995,1001)"/>
<path d="M0 0 C4.9635841 0.4727223 8.23071739 1.67944151 12 5 C12.5625 8.125 12.5625 8.125 12 11 C8.97455666 13.01696222 8.38932618 13.25811096 5 13.1875 C4.319375 13.18105469 3.63875 13.17460938 2.9375 13.16796875 C1 13 1 13 -2 12 C-1 3.42857143 -1 3.42857143 0 0 Z " fill="#F19626" transform="translate(999,983)"/>
<path d="M0 0 C2.31 0.33 4.62 0.66 7 1 C6.34 4.3 5.68 7.6 5 11 C4.34 10.34 3.68 9.68 3 9 C2.34 9.66 1.68 10.32 1 11 C1.020625 10.05125 1.04125 9.1025 1.0625 8.125 C1.22551826 5.09333717 1.22551826 5.09333717 0 3 C0.66 3 1.32 3 2 3 C2 2.34 2 1.68 2 1 C1.34 0.67 0.68 0.34 0 0 Z " fill="#F0972B" transform="translate(977,1017)"/>
<path d="M0 0 C2.31 0.33 4.62 0.66 7 1 C8.19287411 4.87684087 9 7.91621923 9 12 C7.35 12 5.7 12 4 12 C4.875 4.25 4.875 4.25 6 2 C3.03 1.505 3.03 1.505 0 1 C0 0.67 0 0.34 0 0 Z " fill="#ED9D3B" transform="translate(997,965)"/>
<path d="M0 0 C0.33 1.32 0.66 2.64 1 4 C1.99 4.33 2.98 4.66 4 5 C4 7.31 4 9.62 4 12 C2.02 11.34 0.04 10.68 -2 10 C-1.34 6.7 -0.68 3.4 0 0 Z " fill="#F1992F" transform="translate(1013,969)"/>
<path d="M0 0 C1.32 0.33 2.64 0.66 4 1 C3.67 3.31 3.34 5.62 3 8 C1.35 7.67 -0.3 7.34 -2 7 C-1.34 4.69 -0.68 2.38 0 0 Z " fill="#EE9931" transform="translate(990,1020)"/>
<path d="M0 0 C1.22419811 3.67259434 0.54143712 4.57458418 -1 8 C-1.33 8.99 -1.66 9.98 -2 11 C-3.32 9.35 -4.64 7.7 -6 6 C-5.38125 5.7525 -4.7625 5.505 -4.125 5.25 C-1.64931313 3.79371361 -1.04874998 2.62187494 0 0 Z " fill="#EA9D3B" transform="translate(1022,994)"/>
<path d="M0 0 C2.475 0.99 2.475 0.99 5 2 C5 2.66 5 3.32 5 4 C3.02 4.33 1.04 4.66 -1 5 C-0.67 3.35 -0.34 1.7 0 0 Z " fill="#F1972A" transform="translate(1023,953)"/>
<path d="M0 0 C-0.33 0.99 -0.66 1.98 -1 3 C-4.96 3 -8.92 3 -13 3 C-13 2.67 -13 2.34 -13 2 C-12.06027344 1.90912109 -12.06027344 1.90912109 -11.1015625 1.81640625 C-9.87566406 1.69072266 -9.87566406 1.69072266 -8.625 1.5625 C-7.81289063 1.48128906 -7.00078125 1.40007813 -6.1640625 1.31640625 C-3.85304959 0.97851447 -2.33455672 0 0 0 Z " fill="#EC9935" transform="translate(1017,1021)"/>
</svg>
