<?xml version="1.0" encoding="UTF-8"?>
<svg version="1.1" xmlns="http://www.w3.org/2000/svg" width="2000" height="2000">
<path d="M0 0 C660 0 1320 0 2000 0 C2000 660 2000 1320 2000 2000 C1340 2000 680 2000 0 2000 C0 1340 0 680 0 0 Z " fill="#FEFEFE" transform="translate(0,0)"/>
<path d="M0 0 C0.66022156 0.00141495 1.32044312 0.0028299 2.00067139 0.00428772 C4.09945294 0.0098638 6.19812595 0.02241178 8.296875 0.03515625 C9.72395679 0.04017435 11.15104025 0.04473671 12.578125 0.04882812 C16.06774332 0.05982537 19.55729856 0.07707345 23.046875 0.09765625 C21.97286392 3.01282917 21.26877324 4.87575801 19.046875 7.09765625 C16.0078125 7.51171875 16.0078125 7.51171875 12.421875 7.72265625 C11.23335937 7.79742188 10.04484375 7.8721875 8.8203125 7.94921875 C7.90507813 7.99820313 6.98984375 8.0471875 6.046875 8.09765625 C6.5313208 8.63680664 7.0157666 9.17595703 7.51489258 9.73144531 C9.40794183 12.65533908 9.47022962 14.49315753 9.55859375 17.95703125 C9.61176758 19.62958984 9.61176758 19.62958984 9.66601562 21.3359375 C9.68857422 22.49480469 9.71113281 23.65367187 9.734375 24.84765625 C9.78561523 26.60916016 9.78561523 26.60916016 9.83789062 28.40625 C9.92032673 31.30329014 9.98949311 34.20002923 10.046875 37.09765625 C11.531875 37.59265625 11.531875 37.59265625 13.046875 38.09765625 C12.046875 39.09765625 12.046875 39.09765625 9.296875 39.47265625 C5.97126448 39.08893196 4.36926312 38.5045309 2.06787109 36.06347656 C-0.3721268 31.36551793 0.56143692 25.42806865 0.734375 20.28515625 C0.75693359 19.01994141 0.77949219 17.75472656 0.80273438 16.45117188 C0.86157108 13.33282646 0.95124819 10.21509036 1.046875 7.09765625 C-3.573125 7.09765625 -8.193125 7.09765625 -12.953125 7.09765625 C-11.953125 3.09765625 -11.953125 3.09765625 -10.953125 1.09765625 C-7.40329356 -0.25189724 -3.75152942 -0.01589631 0 0 Z " fill="#131415" transform="translate(994.953125,981.90234375)"/>
</svg>
