<?xml version="1.0" encoding="UTF-8"?>
<svg version="1.1" xmlns="http://www.w3.org/2000/svg" width="2000" height="2000">
<path d="M0 0 C660 0 1320 0 2000 0 C2000 660 2000 1320 2000 2000 C1340 2000 680 2000 0 2000 C0 1340 0 680 0 0 Z " fill="#FEFEFE" transform="translate(0,0)"/>
<path d="M0 0 C11.25816557 6.25263824 19.04207934 15.79348272 23.43359375 27.9140625 C26.56139988 42.13672811 25.13551379 57.24425763 17.32421875 69.6171875 C14.90730509 72.97669748 12.34234596 75.89960928 9.26171875 78.6796875 C8.78476563 79.16050781 8.3078125 79.64132812 7.81640625 80.13671875 C-2.6783117 90.14979505 -15.81314881 91.15209864 -29.51171875 90.953125 C-40.06871449 90.57488571 -47.62372615 86.17690859 -55.73828125 79.6796875 C-56.36476563 79.20273438 -56.99125 78.72578125 -57.63671875 78.234375 C-62.02884442 74.43846548 -64.51187974 69.78189989 -67.11328125 64.6796875 C-67.45955566 64.00301025 -67.80583008 63.32633301 -68.16259766 62.62915039 C-72.96623013 52.70766287 -73.42507265 39.73698067 -70.8671875 29.03515625 C-66.15603967 16.01385256 -58.02665524 5.3294231 -45.46875 -0.95703125 C-30.24702704 -7.38070878 -15.01022469 -7.23745499 0 0 Z " fill="#2A77CA" transform="translate(1023.73828125,957.3203125)"/>
<path d="M0 0 C1.67542976 0.28604898 3.34385343 0.61781233 5 1 C5 2.98 5 4.96 5 7 C6.11375 7.0928125 6.11375 7.0928125 7.25 7.1875 C10.89377041 8.26406853 12.00475743 9.82239146 14 13 C14 14.32 14 15.64 14 17 C11.6875 17.25 11.6875 17.25 9 17 C8.5875 16.34 8.175 15.68 7.75 15 C6.19826383 12.77757944 6.19826383 12.77757944 3.81640625 12.734375 C1.53293403 12.74862444 -0.72323958 12.82816902 -3 13 C-3 14.98 -3 16.96 -3 19 C-2.03578125 19.24234375 -1.0715625 19.4846875 -0.078125 19.734375 C1.81679688 20.23710938 1.81679688 20.23710938 3.75 20.75 C5.00296875 21.07484375 6.2559375 21.3996875 7.546875 21.734375 C11.09906656 23.03630946 12.76853219 23.97868096 15 27 C16.06775874 31.38880247 15.50671482 35.06452648 13.375 39 C10.55500567 41.37473207 8.63576129 41.75210718 5 42 C5 44.31 5 46.62 5 49 C3.33388095 49.042721 1.66617115 49.04063832 0 49 C-1 48 -1 48 -1.0625 44.9375 C-1.0315625 43.4834375 -1.0315625 43.4834375 -1 42 C-2.36125 41.9071875 -2.36125 41.9071875 -3.75 41.8125 C-7 41 -7 41 -9.375 38.75 C-11.11305534 35.80867557 -11.38229016 34.3450389 -11 31 C-8.6875 30.6875 -8.6875 30.6875 -6 31 C-5.54625 31.804375 -5.0925 32.60875 -4.625 33.4375 C-3.16987159 36.36844088 -3.16987159 36.36844088 0.4375 36.9375 C3.80802824 36.99663207 5.27075574 36.8558861 8 35 C8.16687448 32.58354218 8.16687448 32.58354218 8 30 C4.77049191 26.77049191 0.45118513 26.73626525 -3.93359375 25.87890625 C-6.9959047 25.00117381 -8.22166712 24.58611799 -10 22 C-10.99138032 18.99206197 -11.27667019 16.15404016 -11 13 C-8.64122063 9.66995853 -7.10551357 8.31937059 -3.1875 7.1875 C-2.1046875 7.0946875 -2.1046875 7.0946875 -1 7 C-1.020625 6.030625 -1.04125 5.06125 -1.0625 4.0625 C-1 1 -1 1 0 0 Z " fill="#F7FAFD" transform="translate(998,976)"/>
<path d="M0 0 C8.36734031 1.02631772 14.95223739 7.14475802 20.203125 13.3828125 C25.40414668 20.95821364 28.47457332 29.82181464 27 39 C25.23573161 47.14126085 22.78110808 53.91242354 17 60 C16.47535156 60.55300781 15.95070313 61.10601563 15.41015625 61.67578125 C10.89833833 65.95404624 5.82957927 68.00597892 0 70 C-1 69 -1 69 -1.38671875 66.65234375 C-1 64 -1 64 1.23046875 62.19140625 C2.20628906 61.65386719 3.18210937 61.11632813 4.1875 60.5625 C11.7742432 56.03963386 16.67094309 50.7215748 19 42 C20.11189542 32.61066089 19.52886567 24.83762277 14 17 C9.86752426 12.12579785 4.79151545 8.67300713 -1 6 C-1.042721 4.33388095 -1.04063832 2.66617115 -1 1 C-0.67 0.67 -0.34 0.34 0 0 Z " fill="#F4F8FC" transform="translate(1010,966)"/>
<path d="M0 0 C0.625 2.625 0.625 2.625 0 6 C-2.35035988 7.73544015 -4.82643029 9.04731934 -7.390625 10.4453125 C-13.86049465 14.30011508 -18.02384991 20.7987751 -20 28 C-21.12187627 37.44140818 -19.66002303 45.51307741 -14.1875 53.3125 C-10.80479185 57.53251214 -6.94256964 60.02871518 -2.125 62.4375 C-1.42375 62.953125 -0.7225 63.46875 0 64 C0.3125 66.6875 0.3125 66.6875 0 69 C-7.50256353 69 -12.55808006 64.85915024 -18 60 C-20.42702012 57.17583113 -22.27189367 54.29163111 -24 51 C-24.61875 49.845 -25.2375 48.69 -25.875 47.5 C-28.49932739 39.68987597 -28.53429303 28.44556048 -25.25 20.8125 C-24.53525585 19.52150884 -23.7884989 18.24731185 -23 17 C-22.443125 15.989375 -21.88625 14.97875 -21.3125 13.9375 C-15.97755387 7.16067654 -9.05168964 0 0 0 Z " fill="#F7F9FD" transform="translate(991,966)"/>
</svg>
